<?xml version="1.0" encoding="UTF-8"?>
<svg id="Camada_1" data-name="Camada 1" xmlns="http://www.w3.org/2000/svg" viewBox="0 0 350 350">
  <defs>
    <style>
      .cls-1 {
        fill: #61de75;
      }
    </style>
  </defs>
  <path id="Caminho_5876" data-name="Caminho 5876" class="cls-1" d="M236.63,110.55v26.69l34.28-1.85c-63.21,68.23-89,97.1-116.99,97.1-22.34,0-32.78-14.33-37.34-29.94,61.46-2.13,82.48-39.74,82.48-63.31s-13.67-49.24-51.25-49.24c-40.63,0-60.59,40.3-63.28,79.24-13.67-6.4-22.18-20.37-21.6-35.45-.05-9.83,1.83-19.57,5.54-28.67-6.77-2.67-27.36-9.65-27.36-9.65-4.47,12.83-6.92,26.27-7.25,39.85.01,31.14,21.79,58.04,52.25,64.53,7.36,39.36,35.19,60.15,67.8,60.15,42.22,0,71.11-35.72,137.65-106.46l-2.13,36.5h26.69v-79.49h-79.5ZM147.3,119.74c10.91-.96,20.54,7.1,21.5,18.01.09,1.05.1,2.11.03,3.17,0,16.32-19.13,34.74-52.75,34.74-.9,0-1.79,0-2.67-.04.67-31.9,13.09-55.88,33.89-55.88"/>
</svg>