<svg xmlns="http://www.w3.org/2000/svg" xmlns:xlink="http://www.w3.org/1999/xlink" width="280" height="48" viewBox="0 0 280 48">
  <defs>
    <clipPath id="clip-logo">
      <rect width="280" height="48"/>
    </clipPath>
  </defs>
  <g id="logo" clip-path="url(#clip-logo)">
    <g id="ONE_PAGE_YouRH" transform="translate(-5017 -10714.053)">
      <path id="Caminho_5876" data-name="Caminho 5876" d="M47.548,4.818v6.26l8.04-.435c-14.822,16-20.871,22.77-27.435,22.77-5.238,0-7.686-3.36-8.757-7.021,14.412-.5,19.342-9.319,19.342-14.846C38.738,6.092,35.533,0,26.72,0,17.191,0,12.512,9.451,11.881,18.583a8.806,8.806,0,0,1-5.065-8.314,17.589,17.589,0,0,1,1.3-6.724C6.529,2.918,1.7,1.282,1.7,1.282A30.663,30.663,0,0,0,0,10.628,15.478,15.478,0,0,0,12.252,25.76c1.725,9.229,8.252,14.106,15.9,14.106,9.9,0,16.675-8.377,32.28-24.966l-.5,8.56h6.26V4.818H47.548ZM26.6,6.975a4.651,4.651,0,0,1,5.048,4.967c0,3.827-4.487,8.147-12.371,8.147-.211,0-.419,0-.625-.009C18.81,12.6,21.721,6.975,26.6,6.975" transform="translate(5017 10714.053)" fill="#61de75"/>
      <path id="Caminho_5877" data-name="Caminho 5877" d="M167.439,7.486c-4.842,12.1-10.076,24.144-13.871,33.435-4.253,10.01-8.244,15.311-14.918,15.311-4.711,0-7.917-1.963-9.684-5.1l7.852-6.543.785.066c.327,3.01,1.832,5.3,4.515,5.3,3.86,0,6.215-3.729,7.393-7.72-2.094,0-5.954-.131-8.048-.393-3.6-11.058-8.637-24.536-12.825-34.351a90.474,90.474,0,0,0,14.591,0c2.159,8.375,5.234,19.3,8.113,28.331,2.682-9.749,5.1-21.265,6.347-28.331a60.68,60.68,0,0,0,9.749,0" transform="translate(4971.206 10711.388)" fill="#FFFFFF"/>
      <path id="Caminho_5878" data-name="Caminho 5878" d="M186.956,23.825c0-10.73,7.262-17.862,19.237-17.862s19.3,7.132,19.3,17.862c0,10.927-7.328,18.255-19.3,18.255s-19.237-7.328-19.237-18.255m24.667-.261c0-11.647-1.9-15.376-5.431-15.376-3.4,0-5.5,3.8-5.5,15.638,0,12.17,2.094,15.965,5.562,15.965,3.4,0,5.365-3.86,5.365-16.226" transform="translate(4950.445 10710.930)" fill="#FFFFFF"/>
      <path id="Caminho_5879" data-name="Caminho 5879" d="M287.188,41.706h-5.5L275.345,33c-1.505,5.758-5.823,9.618-12.17,9.618-6.608,0-11.712-3.4-11.777-14.133-.066-8.375,0-14.329-.131-21a90.885,90.885,0,0,0,13.348,0c-.066,12.3,0,11.385.131,20.807.065,6.805.981,9.226,3.6,9.16,3.468-.065,5.562-4.318,5.562-12.759,0-8.9,0-10.8-.2-17.208a92.672,92.672,0,0,0,13.478,0c-.327,11.581-.392,22.639,0,34.22" transform="translate(4927.551 10711.388)" fill="#FFFFFF"/>
      <path id="Caminho_5880" data-name="Caminho 5880" d="M361.8,41.566a58.7,58.7,0,0,1-13.564,0A102.564,102.564,0,0,0,338.267,28.9c0,4.139.05,8.378.149,12.666a37.558,37.558,0,0,1-10.572,0c.249-11.669.249-21.992,0-34.309A88.294,88.294,0,0,1,341.158,6.01c4.389,0,17.654.549,17.654,10.672,0,8.128-9.525,11.968-18.052,11.819A102.671,102.671,0,0,0,352.428,30c2.494,3.191,5.585,7.43,9.375,11.569m-23.587-14.91a21.961,21.961,0,0,0,2.244.149c4.04,0,6.982-2.494,6.982-9.525,0-6.931-2.743-9.126-6.383-9.126-.7,0-1.646.1-2.643.2-.149,5.934-.2,12.067-.2,18.3" transform="translate(4900.290 10710.913)" fill="#FFFFFF"/>
      <path id="Caminho_5881" data-name="Caminho 5881" d="M416.777,41.738a42.058,42.058,0,0,1-10.622,0c.1-5.435.2-10.871.2-16.307-3.889-.1-7.879-.1-11.718,0,0,5.436.1,10.872.2,16.307a42.058,42.058,0,0,1-10.622,0c.249-11.619.249-23.288,0-34.907a42.058,42.058,0,0,1,10.622,0c-.1,5.236-.15,10.472-.2,15.708,3.84.1,7.829.1,11.718,0-.05-5.236-.1-10.472-.2-15.708a42.058,42.058,0,0,1,10.622,0c-.249,11.619-.249,23.288,0,34.907" transform="translate(4880.223 10711.741)" fill="#FFFFFF"/>
    </g>
  </g>
</svg>
